<?xml version="1.0" encoding="UTF-8" standalone="no"?>
<!-- Created with Inkscape (http://www.inkscape.org/) -->

<svg
   version="1.1"
   id="svg1"
   width="63.68"
   height="67.839996"
   viewBox="0 0 63.68 67.839996"
   sodipodi:docname="logodrink1.svg"
   inkscape:version="1.3 (0e150ed6c4, 2023-07-21)"
   xmlns:inkscape="http://www.inkscape.org/namespaces/inkscape"
   xmlns:sodipodi="http://sodipodi.sourceforge.net/DTD/sodipodi-0.dtd"
   xmlns="http://www.w3.org/2000/svg"
   xmlns:svg="http://www.w3.org/2000/svg">
  <defs
     id="defs1" />
  <sodipodi:namedview
     id="namedview1"
     pagecolor="#ffffff"
     bordercolor="#000000"
     borderopacity="0.25"
     inkscape:showpageshadow="2"
     inkscape:pageopacity="0.0"
     inkscape:pagecheckerboard="0"
     inkscape:deskcolor="#d1d1d1"
     inkscape:zoom="5.6568543"
     inkscape:cx="27.311999"
     inkscape:cy="30.847533"
     inkscape:window-width="1920"
     inkscape:window-height="1009"
     inkscape:window-x="1912"
     inkscape:window-y="-8"
     inkscape:window-maximized="1"
     inkscape:current-layer="g1" />
  <g
     inkscape:groupmode="layer"
     inkscape:label="Image"
     id="g1"
     style="display:inline;opacity:1;fill:#000000;fill-rule:nonzero"
     transform="translate(69.742538,-6.962453)">
    <rect
       style="display:none;fill:#000000;fill-rule:nonzero"
       id="rect3"
       width="63.60614"
       height="67.97242"
       x="-69.624527"
       y="7.0804605" />
    <g
       id="g10"
       transform="translate(-0.11800766,0.4720307)">
      <path
         style="fill:#c7a9cd"
         d="m -40.361374,70.294181 c 0.22,-0.08877 0.58,-0.08877 0.8,0 0.22,0.08877 0.04,0.161404 -0.4,0.161404 -0.44,0 -0.62,-0.07263 -0.4,-0.161404 z m -24.497617,-9.86807 c 0.0065,-0.527999 0.07824,-0.705259 0.159374,-0.393909 0.08113,0.311349 0.0758,0.743349 -0.01186,0.96 -0.08766,0.21665 -0.154037,-0.03809 -0.147516,-0.566091 z m 36.76288,-1.306666 c 0.01535,-0.372782 0.09118,-0.448608 0.193333,-0.193333 0.09244,0.231 0.08107,0.507 -0.02526,0.613333 -0.106333,0.106333 -0.181965,-0.08267 -0.16807,-0.42 z m -10.534737,-4.933333 c 0,-0.44 0.07263,-0.62 0.161403,-0.4 0.08877,0.22 0.08877,0.58 0,0.8 -0.08877,0.22 -0.161403,0.04 -0.161403,-0.4 z m 3.469474,-0.32 c 0,-0.176 0.152498,-0.32 0.338885,-0.32 0.186387,0 0.249889,0.144 0.141115,0.32 -0.108774,0.176 -0.261273,0.32 -0.338886,0.32 -0.07761,0 -0.141114,-0.144 -0.141114,-0.32 z m 12.42,-0.538597 c 0.231,-0.09244 0.507,-0.08107 0.613333,0.02526 0.106333,0.106333 -0.08267,0.181964 -0.42,0.16807 -0.372782,-0.01535 -0.448608,-0.09118 -0.193333,-0.193334 z m -14.572844,-4.261403 c 0,-0.792 0.0624,-1.116 0.138678,-0.72 0.07627,0.396 0.07627,1.044 0,1.44 -0.07627,0.396 -0.138678,0.072 -0.138678,-0.72 z M -47.682192,31.546113 c -0.398039,-0.507538 -0.38672,-0.518856 0.120818,-0.120818 0.308,0.241551 0.56,0.493551 0.56,0.56 0,0.263371 -0.26278,0.09386 -0.680818,-0.439182 z M -59.801374,13.105296 c 0,-0.06645 0.252,-0.318449 0.56,-0.56 0.507537,-0.398038 0.518856,-0.38672 0.120817,0.120818 -0.418038,0.533039 -0.680817,0.702553 -0.680817,0.439182 z"
         id="path16" />
      <path
         style="fill:#a055b1"
         d="m -13.721374,58.225294 c 0,-0.06645 0.252,-0.31845 0.56,-0.56 0.507538,-0.398039 0.518856,-0.38672 0.120817,0.120818 -0.418038,0.533039 -0.680817,0.702553 -0.680817,0.439182 z m -25.894737,-4.225849 c 0.01535,-0.372782 0.09118,-0.448608 0.193333,-0.193333 0.09244,0.231 0.08107,0.507 -0.02526,0.613333 -0.106333,0.106333 -0.181965,-0.08267 -0.16807,-0.42 z m 3.114737,-0.67193 c 0.231,-0.09244 0.507,-0.08107 0.613333,0.02526 0.106333,0.106333 -0.08267,0.181964 -0.42,0.16807 -0.372782,-0.01535 -0.448608,-0.09118 -0.193333,-0.193334 z m -11.3,-4.901403 c 0.318555,-0.352 0.651192,-0.64 0.739192,-0.64 0.088,0 -0.100637,0.288 -0.419192,0.64 -0.318556,0.352 -0.651192,0.64 -0.739192,0.64 -0.088,0 0.100636,-0.288 0.419192,-0.64 z"
         id="path15" />
      <path
         style="fill:#ef9b03"
         d="m -39.782181,41.146113 c -0.249998,-0.308 -1.700302,-2.072 -3.222897,-3.92 -1.522595,-1.848 -3.058064,-3.761079 -3.412152,-4.251286 l -0.643797,-0.891285 1.229826,0.685386 c 0.676405,0.376962 1.409827,0.831673 1.629827,1.010468 0.272598,0.221542 0.4,0.21769 0.4,-0.01209 0,-0.185446 0.54,-0.32112 1.2,-0.301498 0.66,0.01962 2.172,-0.07374 3.36,-0.207477 2.034224,-0.228996 2.16,-0.205504 2.16,0.40343 0,1.525166 0.923826,0.951223 2.074007,-1.288511 0.957266,-1.864075 1.638662,-2.661421 1.834045,-2.146136 0.09155,0.241452 -0.400591,1.591003 -1.093652,2.999003 -0.69306,1.408 -1.786259,3.712 -2.42933,5.12 -1.590699,3.482825 -2.132563,3.974491 -3.085877,2.8 z m -1.779193,-6 c -0.413359,-0.44 -0.645962,-0.8 -0.516895,-0.8 0.129066,0 0.13424,-0.162492 0.0115,-0.361093 -0.153227,-0.247926 -0.312608,-0.201273 -0.508553,0.148861 -0.379501,0.678131 0.338111,1.812232 1.146705,1.812232 0.576339,0 0.567229,-0.0549 -0.132755,-0.8 z"
         id="path14" />
      <path
         style="fill:#9828ad"
         d="m -44.235758,69.857085 c -2.282121,-0.68389 -2.764378,-2.441195 -1.168685,-4.258589 1.049375,-1.195172 4.980301,-3.412385 6.049863,-3.412385 0.814985,0 0.892535,0.58446 0.113206,0.853178 -0.308,0.1062 -1.208,0.48485 -2,0.841443 -0.792,0.356594 -1.555662,0.661184 -1.697025,0.676866 -0.141364,0.01568 -0.609364,0.367627 -1.04,0.7821 -1.398663,1.346166 -0.862045,3.29343 1.039077,3.770581 2.326442,0.5839 11.68626,-0.832992 14.399346,-2.179778 2.876464,-1.427887 1.804502,-2.909178 -2.756903,-3.809629 -2.327346,-0.459433 -3.708872,-1.438249 -2.770879,-1.963176 0.343244,-0.192089 0.679485,-0.186796 0.923138,0.01453 0.210785,0.174168 1.319246,0.557805 2.463246,0.852527 3.940751,1.015234 5.693258,2.64866 4.843271,4.514178 -0.859973,1.887435 -7.669116,3.666539 -13.853538,3.619675 -1.996353,-0.01513 -4.041206,-0.150812 -4.544117,-0.301521 z m 0.594384,-2.230974 c -0.301786,-0.488299 0.0803,-0.906332 1.481986,-1.62142 l 1.278564,-0.652274 -0.364916,0.681852 c -0.523926,0.978964 -0.187542,1.529427 1.026017,1.678987 0.582092,0.07174 0.09485,0.153477 -1.082766,0.181643 -1.177613,0.02817 -2.230111,-0.09279 -2.338885,-0.268788 z m -19.2,-2.541661 c -1.115763,-0.455187 -2.377131,-1.971018 -2.591644,-3.114472 -0.327672,-1.746642 0.05543,-3.546744 1.275744,-5.994447 2.292119,-4.597517 6.067746,-8.309726 10.990279,-10.805681 2.419791,-1.226947 2.969316,-1.381746 4.90842,-1.382683 1.285983,-6.21e-4 2.343514,0.158557 2.572673,0.387235 0.522094,0.520998 0.420448,2.420652 -0.192999,3.606927 -0.6013,1.162785 -3.362611,3.413038 -5.122473,4.174416 -1.512269,0.65426 -5.108992,1.130326 -4.803343,0.635775 0.110613,-0.178975 0.588615,-0.326815 1.062228,-0.328534 1.977679,-0.0072 6.845707,-2.990303 8.044174,-4.929463 0.729113,-1.17973 0.85003,-2.270304 0.290089,-2.616367 -0.674722,-0.417001 -3.795707,-0.121104 -5.517523,0.52311 -3.219578,1.204599 -5.48896,3.109076 -9.477532,7.953598 -2.684411,3.260485 -3.286533,4.664087 -3.331688,7.766467 -0.02203,1.513915 0.106017,1.956434 0.773595,2.673374 0.752491,0.808133 0.933023,0.850594 3.04,0.715023 1.752844,-0.112785 2.73514,-0.394553 4.516718,-1.295601 2.415869,-1.221845 6.698348,-4.309237 8.263151,-5.957198 0.516928,-0.5444 1.124408,-0.989817 1.349957,-0.989817 0.232022,0 0.330558,-0.207251 0.226929,-0.477303 -0.240034,-0.625518 0.715484,-0.987094 1.308324,-0.49508 0.251311,0.20857 0.501478,0.763449 0.555925,1.233064 0.131875,1.137432 0.884384,1.221969 2.036029,0.228728 0.518632,-0.447296 1.211024,-0.899198 1.538649,-1.004227 0.818977,-0.262543 1.606438,0.585934 1.335643,1.439135 -0.275229,0.867168 -0.811325,0.87604 -0.811325,0.01343 0,-1.034696 -1.287114,-0.652439 -2.156292,0.640393 -0.866708,1.289158 -0.802589,1.748805 0.26097,1.870786 1.211098,0.138902 3.796439,-1.776366 5.303491,-3.928922 1.551874,-2.216577 1.580861,-2.303674 0.831831,-2.499416 -0.427078,-0.111607 -0.391434,-0.155154 0.150166,-0.183464 0.496479,-0.02595 1.061781,-0.590774 1.878713,-1.87712 1.433351,-2.256963 1.293748,-2.110311 1.743995,-1.832043 0.207882,0.128478 0.246712,0.321306 0.087,0.432043 -0.37657,0.261096 -1.699875,2.548474 -1.699875,2.938291 0,0.16594 1.147611,0.301709 2.550248,0.301709 h 2.550248 l 1.604619,-2.377942 c 1.71558,-2.542379 2.099583,-2.932227 2.403649,-2.440238 0.106143,0.171743 -0.291894,0.858092 -0.884527,1.52522 -1.012746,1.14005 -1.489696,1.959282 -1.684256,2.89296 -0.06116,0.293515 0.595641,0.4 2.467219,0.4 1.618894,0 2.478329,0.11689 2.3528,0.32 -0.108774,0.176 -1.403467,0.32 -2.877096,0.32 -2.558957,0 -2.707234,0.03953 -3.300583,0.88 -1.276994,1.808833 -2.621347,4.82666 -2.214742,4.971693 0.403767,0.14402 3.001039,-1.570835 4.356057,-2.876098 0.873862,-0.841774 2.327566,-0.965053 2.922782,-0.247862 0.490872,0.591465 0.13808,1.064765 -0.395752,0.530933 -0.614904,-0.614904 -1.438521,-0.436757 -2.147441,0.464488 -1.173877,1.492344 -0.777685,1.958499 0.556932,0.65528 1.277786,-1.247724 1.659843,-1.248898 1.659843,-0.0051 0,1.088385 0.404854,0.934154 2.24,-0.853333 0.903462,-0.88 1.777061,-1.6 1.941329,-1.6 0.476871,0 0.34537,0.842878 -0.202429,1.297511 -0.68815,0.571114 -1.473089,2.151227 -1.163649,2.342472 0.661939,0.4091 2.369477,-1.320584 3.99851,-4.050369 3.680734,-6.167838 5.817699,-8.411387 7.111017,-7.46569 0.4119586,0.301231 0.5114924,0.647999 0.3596495,1.252989 -0.2285945,0.910792 -3.2382125,4.703087 -3.7324355,4.703087 -0.320569,0 -0.946846,0.468368 -2.845889,2.128328 -1.431553,1.251324 -2.553821,3.306818 -2.804659,5.136882 l -0.190928,1.39297 0.924742,-0.351357 c 1.018843,-0.387112 3.523236,-2.209085 5.208661,-3.789357 1.714744,-1.607762 1.478002,-0.966099 -0.366338,0.992918 -1.749898,1.858701 -4.437202,3.449615 -5.826943,3.449615 -0.683761,0 -0.810638,-0.147299 -0.810638,-0.941114 0,-0.517613 0.144,-1.030112 0.32,-1.138886 0.370013,-0.22868 0.438068,-1.445006 0.08,-1.429822 -0.132,0.0056 -0.519523,0.221597 -0.861162,0.48 -0.8659,0.654934 -1.458838,0.585766 -1.458838,-0.170177 0,-0.68568 -0.467242,-0.858414 -0.812199,-0.300262 -0.115484,0.186856 -0.587702,0.483352 -1.049374,0.658879 -0.666851,0.253537 -0.91931,0.209863 -1.228115,-0.212453 -0.357682,-0.489159 -0.447143,-0.490666 -1.120714,-0.01888 -0.962796,0.674369 -1.229598,0.64675 -1.229598,-0.127285 0,-0.799433 0.02903,-0.802185 -1.647337,0.156145 -0.765965,0.43788 -1.80545,0.79788 -2.309968,0.8 -0.801027,0.0034 -0.898353,-0.09529 -0.767793,-0.778267 l 0.149512,-0.782122 -1.26717,0.646462 c -1.076939,0.549413 -1.40604,0.588941 -2.192207,0.263299 -0.653404,-0.270648 -0.925037,-0.606679 -0.925037,-1.14434 0,-0.418648 -0.103054,-0.761177 -0.229009,-0.761177 -0.125954,0 -0.917954,0.678586 -1.76,1.50797 -0.842045,0.829384 -1.530991,1.362184 -1.530991,1.184 0,-0.178184 0.18,-0.517964 0.4,-0.755068 0.329074,-0.354657 0.286518,-0.386572 -0.24,-0.179993 -0.352,0.138108 -1.187825,0.407139 -1.857389,0.597848 -1.350687,0.384711 -1.808398,0.05365 -1.817711,-1.314757 -0.0072,-1.052947 -0.811324,-0.89491 -2.123567,0.417333 -1.392527,1.392526 -1.6366,1.350009 -2.580124,-0.449457 -0.0545,-0.103945 -2.622547,1.80448 -2.981209,2.215465 -0.088,0.100837 -0.376,0.286485 -0.64,0.412551 -0.590363,0.281909 -1.376191,0.761566 -3.04,1.855565 -0.704,0.462899 -1.856,1.018084 -2.56,1.233745 -0.704,0.215661 -1.4168,0.518715 -1.584,0.673454 -0.375125,0.347167 -2.6675,0.333995 -3.536,-0.02032 z m 16.57992,-6.211555 c 0.658618,-1.005178 1.046843,-3.086783 0.575693,-3.086783 -0.195588,0 -0.355613,0.21268 -0.355613,0.472623 0,0.259942 -0.344959,0.698648 -0.766575,0.974902 -0.763382,0.500187 -1.270189,1.624662 -0.959104,2.128008 0.306019,0.495149 1.010838,0.26635 1.505599,-0.48875 z m 13.012644,-0.584209 c 1.603182,-1.049534 3.101574,-3.177206 2.697711,-3.83067 -0.137072,-0.221787 -0.08958,-0.284527 0.118171,-0.156127 0.191032,0.118064 0.437779,0.06831 0.548328,-0.110557 0.110548,-0.178871 0.06028,-0.32522 -0.111717,-0.32522 -0.171992,0 -0.564113,-0.09647 -0.87138,-0.214381 -0.402429,-0.154426 -0.488044,-0.100111 -0.306138,0.194219 0.194763,0.315133 0.01462,0.356345 -0.787539,0.180162 -0.726881,-0.15965 -0.974146,-0.121774 -0.821149,0.125781 0.131167,0.212233 -0.02869,0.354219 -0.398811,0.354219 -0.339752,0 -1.233775,0.546691 -1.986717,1.214869 -1.278005,1.13413 -1.354211,1.293632 -1.146655,2.4 0.283221,1.509699 0.959472,1.54669 3.065896,0.167705 z m -1.264012,-3.740993 c 0.948146,-0.576602 0.958055,-0.605209 0.271801,-0.784669 -0.659654,-0.172503 -1.521333,0.462892 -1.550176,1.143088 -0.01521,0.358759 0.196827,0.299309 1.278375,-0.358419 z m 23.398792,-5.272591 c 0.350517,-0.677055 0.578902,-1.289411 0.507522,-1.36079 -0.246181,-0.246182 -2.393116,1.635113 -3.31279,2.902898 -0.848793,1.170076 -1.722076,2.851464 -1.722076,3.315624 0,0.486456 3.960785,-3.763372 4.527344,-4.857732 z m -28.165774,4.99101 c -0.166704,-0.66 -0.398701,-1.92 -0.515549,-2.8 -0.588194,-4.429763 -2.657383,-8.886952 -6.508977,-14.020825 -3.695874,-4.926309 -6.644508,-8.388105 -10.748565,-12.619174 -2.953755,-3.045167 -3.372993,-3.599385 -2.720206,-3.59601 0.859198,0.0044 2.629179,1.540857 4.611727,4.003168 0.704,0.874364 2.341235,2.742447 3.6383,4.151297 1.297065,1.40885 2.905779,3.353545 3.574919,4.321545 0.669141,0.968 1.55972,2.12 1.979064,2.56 2.244311,2.354855 5.697345,8.693131 6.798988,12.479999 0.522647,1.796585 0.853118,6.72 0.451063,6.72 -0.141717,0 -0.39406,-0.54 -0.560764,-1.2 z m 19.47843,0.331231 c 0,-0.580063 1.163003,-1.819421 1.379147,-1.469692 0.11062,0.178987 -0.154434,0.659464 -0.58901,1.067726 -0.434575,0.408263 -0.790137,0.589147 -0.790137,0.401966 z m -17.195949,-6.731231 c 0.165064,-4.216315 0.589107,-6.278457 2.048861,-9.963725 1.41217,-3.565137 5.308192,-11.511101 7.598664,-15.497526 1.194922,-2.079689 2.122149,-3.828776 2.060504,-3.88686 -0.06164,-0.05809 -4.57608,0.389602 -10.03208,0.994859 -7.553508,0.837942 -10.101627,1.018025 -10.681353,0.754879 -0.418744,-0.190073 -0.706744,-0.398032 -0.64,-0.462131 0.19699,-0.189183 23.367649,-2.799864 23.517728,-2.649786 0.07542,0.07542 -0.422761,0.986094 -1.107075,2.023712 -1.281626,1.943315 -2.533297,4.207463 -5.996229,10.846579 -3.378862,6.477939 -6.010058,15.109709 -5.860805,19.22667 0.07183,1.981237 -0.120913,2.693329 -0.72899,2.693329 -0.229231,0 -0.287247,-1.320715 -0.179225,-4.08 z"
         id="path13" />
      <path
         style="fill:#f15916"
         d="m -42.454067,35.294975 c -0.259265,-0.41515 -0.303212,-0.835959 -0.121257,-1.161094 0.195945,-0.350134 0.355326,-0.396787 0.508553,-0.148861 0.122742,0.198601 0.117568,0.361093 -0.0115,0.361093 -0.129067,0 0.103536,0.36 0.516895,0.8 0.699984,0.745099 0.709094,0.8 0.132755,0.8 -0.340343,0 -0.801795,-0.293012 -1.025448,-0.651138 z m 5.586724,-0.841497 c -0.117717,-0.117718 -0.214031,-0.489493 -0.214031,-0.826168 0,-0.566407 -0.161366,-0.593972 -2.16,-0.368983 -1.188,0.133734 -2.7,0.227099 -3.36,0.207477 -0.66,-0.01962 -1.2,0.108225 -1.2,0.284106 0,0.175881 -0.41823,0.02198 -0.929399,-0.342007 -0.511169,-0.363984 -1.078679,-0.66179 -1.261133,-0.66179 -0.182454,0 -1.051993,-0.828 -1.932309,-1.84 -2.566226,-2.950101 -2.774514,-3.177013 -2.437159,-2.655081 0.28015,0.433429 0.2493,0.439591 -0.247734,0.04948 -0.312253,-0.24508 -0.493502,-0.519831 -0.402776,-0.610557 0.09073,-0.09073 -0.0084,-0.373789 -0.220188,-0.629028 -0.307956,-0.371065 -0.26751,-0.550087 0.201812,-0.893264 0.49424,-0.361397 0.660223,-0.355927 1.050779,0.03463 0.255101,0.255102 0.521016,0.463821 0.590921,0.463821 0.234134,0 -0.281957,-1.117218 -0.620206,-1.3426 -0.729987,-0.486407 0.09761,-0.557186 1.187981,-0.1016 0.686506,0.286841 2.141282,0.4842 3.569133,0.4842 2.028384,0 2.517666,0.107389 3.088048,0.677771 0.372774,0.372774 0.768774,0.550126 0.880001,0.394115 0.111226,-0.156011 0.982229,-0.281008 1.935562,-0.277771 1.106724,0.0038 1.781534,-0.138717 1.866667,-0.394115 0.157466,-0.472398 2.32,-0.546968 2.32,-0.08 0,0.176 -0.144,0.32 -0.32,0.32 -0.176,0 -0.32,0.160795 -0.32,0.357322 0,0.224652 0.267329,0.272827 0.72,0.12975 0.396,-0.125164 1.096088,-0.270236 1.555751,-0.322382 0.459664,-0.05214 1.129269,-0.251896 1.488013,-0.443889 1.077881,-0.576865 1.090103,0.322924 0.0347,2.554577 -0.647755,1.369678 -1.038913,1.887498 -1.213012,1.605799 -0.180337,-0.29179 -0.556423,0.07091 -1.261205,1.216333 -0.552335,0.897658 -1.004244,1.751623 -1.004244,1.897701 0,0.42448 -1.150466,1.347657 -1.385969,1.112154 z m 3.551873,-9.121268 c 0.185952,-0.185953 0.526982,-0.275135 0.757843,-0.198181 0.239662,0.07989 0.09461,0.224941 -0.338096,0.338096 -0.532271,0.139192 -0.657209,0.09755 -0.419747,-0.139915 z"
         id="path12" />
      <path
         style="fill:#ee3534"
         d="m -50.865594,27.706113 -0.77578,-0.88 0.88,0.775781 c 0.484,0.426679 0.88,0.822679 0.88,0.88 0,0.250967 -0.259136,0.04671 -0.98422,-0.775781 z m 8.70199,-1.322229 c -0.570382,-0.570382 -1.059664,-0.677771 -3.088048,-0.677771 -1.427851,0 -2.882627,-0.197359 -3.569133,-0.4842 -1.09037,-0.455586 -1.917968,-0.384807 -1.187981,0.1016 0.183741,0.12243 0.424237,0.467267 0.534436,0.766304 0.142924,0.387839 0.06743,0.492693 -0.263341,0.365763 -0.255037,-0.09787 -0.463703,-0.323095 -0.463703,-0.500506 0,-0.177412 -0.324,-0.113953 -0.72,0.141021 -0.690785,0.444776 -0.852629,0.328949 -3.988563,-2.854503 -1.79771,-1.824949 -3.30971,-3.421002 -3.36,-3.546784 -0.05029,-0.125782 -0.199437,-0.192694 -0.331437,-0.148694 -0.132,0.044 -0.24,-0.212311 -0.24,-0.56958 0,-0.641778 0.01134,-0.641194 0.944442,0.04868 0.519443,0.384041 1.018924,0.892352 1.109957,1.12958 0.09103,0.237228 0.408441,0.431324 0.705352,0.431324 0.296911,0 1.011823,0.36 1.588692,0.8 1.267174,0.96652 1.728004,1.015535 1.504276,0.16 -0.09777,-0.373881 -0.0098,-0.64 0.211523,-0.64 0.236218,0 0.300566,-0.246765 0.170889,-0.655339 -0.2023,-0.637393 -0.175672,-0.641832 0.972431,-0.162124 0.649235,0.271267 1.319706,0.407135 1.489934,0.301928 0.433415,-0.267865 -0.627591,-0.947566 -2.674791,-1.713521 -0.957544,-0.358263 -2.020375,-0.868909 -2.361847,-1.134769 -1.285867,-1.001136 3.304884,0.899936 9.917052,4.106742 8.231107,3.991968 9.310545,4.128242 14.068627,1.776096 1.037595,-0.512933 1.944443,-0.8747 2.015217,-0.803926 0.193824,0.193825 -1.596329,3.724912 -1.888416,3.724912 -0.139336,0 -0.253338,-0.149066 -0.253338,-0.331258 0,-0.217452 -0.235081,-0.205448 -0.684249,0.03494 -0.376336,0.20141 -1.060336,0.408864 -1.52,0.461009 -0.459663,0.05215 -1.159751,0.197218 -1.555751,0.322382 -0.452671,0.143077 -0.72,0.0949 -0.72,-0.12975 0,-0.196527 0.144,-0.357322 0.32,-0.357322 0.176,0 0.32,-0.144 0.32,-0.32 0,-0.466968 -2.162534,-0.392398 -2.32,0.08 -0.08513,0.255398 -0.759943,0.397873 -1.866667,0.394115 -0.953333,-0.0032 -1.824336,0.12176 -1.935562,0.277771 -0.111227,0.156011 -0.507227,-0.02134 -0.880001,-0.394115 z m 9.605977,-1.249855 c -0.230861,-0.07695 -0.571891,0.01223 -0.757843,0.198181 -0.237462,0.237461 -0.112524,0.279107 0.419747,0.139915 0.432705,-0.113155 0.577758,-0.258208 0.338096,-0.338096 z m -26.556137,-7.71849 c -0.569229,-0.351803 0.257659,-0.989736 1.083282,-0.835737 0.346009,0.06454 0.737108,0.128362 0.869108,0.141828 0.132,0.01347 0.24,0.180484 0.24,0.37115 0,0.190667 -0.18,0.282125 -0.4,0.203241 -0.22,-0.07888 -0.623759,-0.02893 -0.897243,0.111005 -0.273483,0.139938 -0.676299,0.143768 -0.895147,0.0085 z m 2.51239,-0.368311 c 0,-0.186387 0.144,-0.249888 0.32,-0.141114 0.176,0.108774 0.32,0.261272 0.32,0.338885 0,0.07761 -0.144,0.141115 -0.32,0.141115 -0.176,0 -0.32,-0.152499 -0.32,-0.338886 z"
         id="path11" />
      <path
         style="fill:#e71c52"
         d="m -54.521374,21.376195 c -0.528,-0.432796 -1.147138,-0.787618 -1.375862,-0.788492 -0.228723,-8.74e-4 -0.934813,-0.505589 -1.569088,-1.121589 -0.634275,-0.616 -1.259731,-1.12 -1.389902,-1.12 -0.130172,0 -0.315892,-0.206434 -0.412711,-0.458742 -0.11441,-0.298147 0.04164,-0.466183 0.445763,-0.48 0.34199,-0.01169 0.9098,-0.03021 1.2618,-0.04115 0.352,-0.01094 0.642205,-0.190938 0.6449,-0.4 0.0034,-0.264776 0.08513,-0.253616 0.269325,0.03678 0.145433,0.229291 0.395228,0.38645 0.5551,0.349244 0.27029,-0.06291 2.734707,0.977034 5.17952,2.185662 1.420722,0.702353 0.811252,1.191073 -0.698622,0.560208 -1.173366,-0.490264 -1.19795,-0.486492 -0.995092,0.152656 0.129677,0.408574 0.06533,0.655339 -0.170889,0.655339 -0.221341,0 -0.309295,0.266119 -0.211523,0.64 0.224805,0.859654 -0.355097,0.795366 -1.532719,-0.169919 z m -8.728798,-3.208227 c -0.831266,-0.58224 -0.960276,-2.096777 -0.230217,-2.702672 0.617784,-0.512715 1.940246,-0.512715 2.558029,0 0.675392,0.560525 0.598203,1.803601 -0.159014,2.560818 -0.770216,0.770215 -1.228859,0.800214 -2.168798,0.141854 z m 1.409299,-5.537101 c -1.093497,-1.2083 0.581106,-3.0652606 2.053586,-2.277213 0.83377,0.44622 1.016523,1.277032 0.465795,2.11755 -0.596915,0.911006 -1.772029,0.985478 -2.519381,0.159663 z"
         id="path10" />
    </g>
    <path
       style="fill:#ffffff;fill-rule:nonzero"
       id="path32"
       d="m -45.251295,21.014759 c 0.276043,-0.01106 0.552028,-0.02438 0.827943,-0.03846 0.319736,-0.01542 0.639651,-0.0279 0.959183,-0.04723 0.241979,-0.01307 0.483961,-0.02627 0.726018,-0.0379 0.21939,-0.01486 0.438441,-0.03471 0.657477,-0.05412 0.163666,-0.01118 0.3273,-0.02237 0.490987,-0.03336 0.160145,-0.01577 0.320544,-0.02846 0.480602,-0.04517 0.191707,-0.01666 0.383751,-0.02997 0.5758,-0.04226 0.173798,-0.007 0.346633,-0.02871 0.518554,-0.05426 0.223552,-0.02727 0.445719,-0.06437 0.668946,-0.09392 0.269224,-0.03388 0.536625,-0.08 0.805109,-0.119127 0.228586,-0.03462 0.458343,-0.06242 0.688636,-0.08289 0.190768,-0.01716 0.380207,-0.04545 0.57002,-0.07045 0.221287,-0.03165 0.442692,-0.06233 0.664024,-0.0937 0.264914,-0.03793 0.529478,-0.0782 0.793815,-0.119949 0.264647,-0.04194 0.530591,-0.07479 0.795462,-0.115381 0.249811,-0.03618 0.500586,-0.06523 0.752208,-0.08516 0.25625,-0.02363 0.512638,-0.04585 0.768899,-0.0694 0.236861,-0.01579 0.472818,-0.04175 0.709375,-0.06105 0.18778,-0.01783 0.375797,-0.03271 0.563345,-0.05293 0.182063,-0.01975 0.364181,-0.03873 0.546548,-0.05555 0.20678,-0.0185 0.412463,-0.04678 0.619145,-0.06607 0.209204,-0.02018 0.418762,-0.0373 0.628423,-0.05208 0.187611,-0.01489 0.374612,-0.03594 0.561834,-0.05483 0.260486,-0.02414 0.520884,-0.05015 0.781709,-0.07056 0.229021,-0.01931 0.458239,-0.03673 0.687584,-0.05177 0.168096,-0.0063 0.335244,-0.02489 0.502552,-0.04113 0.128842,-0.01797 0.257992,-0.03373 0.386751,-0.05222 0.141715,-0.0286 0.284902,-0.04672 0.428171,-0.06511 0.171938,-0.02018 0.344531,-0.03342 0.51695,-0.04857 0.15938,-0.01658 0.318048,-0.03932 0.477468,-0.05536 0.117395,-0.01581 0.235372,-0.02561 0.352731,-0.0415 0.05938,-0.0053 0.115668,-0.02562 0.174531,-0.03414 0.04741,-0.0027 0.09343,-0.01432 0.140517,-0.02034 0.04525,-0.0021 0.08962,-0.0087 0.134452,-0.01462 0,0 -0.302588,-0.214295 -0.302588,-0.214295 v 0 c -0.0455,0.0051 -0.09122,0.0078 -0.136587,0.014 -0.04723,0.0073 -0.09431,0.01518 -0.141741,0.021 -0.05665,0.01166 -0.111824,0.03026 -0.169646,0.03599 -0.115555,0.01676 -0.231887,0.02751 -0.347546,0.0436 -0.158109,0.01716 -0.315467,0.04046 -0.473635,0.05721 -0.173601,0.01413 -0.34734,0.0269 -0.520283,0.04804 -0.144203,0.018 -0.288169,0.03696 -0.431089,0.06366 -0.128365,0.01764 -0.256793,0.03483 -0.385262,0.0517 -0.165252,0.01864 -0.330638,0.03581 -0.496835,0.04371 -0.227613,0.01732 -0.455145,0.03593 -0.682544,0.05583 -0.262535,0.02223 -0.524698,0.04861 -0.787537,0.06722 -0.187365,0.01864 -0.374588,0.03873 -0.562322,0.05344 -0.208654,0.01715 -0.417242,0.03528 -0.625683,0.05481 -0.207526,0.01968 -0.414297,0.04643 -0.62205,0.06395 -0.182527,0.01709 -0.364858,0.03577 -0.547094,0.05569 -0.186394,0.01905 -0.373091,0.03508 -0.559418,0.05484 -0.235644,0.02069 -0.470917,0.0453 -0.706808,0.06325 -0.25638,0.02427 -0.513098,0.04488 -0.769542,0.06847 -0.251861,0.02147 -0.503039,0.05047 -0.753093,0.0876 -0.264347,0.04097 -0.529726,0.07466 -0.793905,0.116625 -0.265114,0.04174 -0.530492,0.08176 -0.796521,0.117276 -0.222375,0.03052 -0.444654,0.06166 -0.66716,0.09114 -0.189699,0.02487 -0.379214,0.05168 -0.569798,0.06907 -0.228264,0.02362 -0.455796,0.05432 -0.682579,0.08935 -0.268822,0.03985 -0.537018,0.08402 -0.806777,0.117311 -0.224997,0.02954 -0.44939,0.06361 -0.674779,0.09022 -0.171934,0.02318 -0.344356,0.04393 -0.517797,0.05161 -0.191869,0.01404 -0.383764,0.02779 -0.575477,0.04375 -0.16103,0.01456 -0.322259,0.0267 -0.483214,0.04206 -0.162571,0.01154 -0.325135,0.02339 -0.487553,0.03687 -0.217634,0.02133 -0.435482,0.04149 -0.653763,0.05487 -0.241239,0.01222 -0.48241,0.02598 -0.72353,0.04031 -0.316343,0.02119 -0.632937,0.03857 -0.949639,0.05342 -0.283765,0.01279 -0.568059,0.02513 -0.852146,0.01886 z" />
    <path
       style="fill:#ffffff;fill-rule:nonzero"
       id="path34"
       d="m -36.132162,50.989527 c 0.02638,-0.320278 0.06004,-0.639695 0.0817,-0.960379 0.03802,-0.373192 0.06659,-0.747068 0.08388,-1.121771 0.0043,-0.337491 0.05348,-0.672464 0.101942,-1.005926 0.04767,-0.330402 0.08664,-0.662003 0.134028,-0.992419 0.03973,-0.33263 0.114131,-0.659573 0.1809,-0.987446 0.0552,-0.290907 0.134656,-0.575427 0.214286,-0.860307 0.05653,-0.273538 0.133928,-0.541301 0.204645,-0.811221 0.08239,-0.318658 0.176793,-0.63379 0.266277,-0.950478 0.105114,-0.348299 0.200739,-0.69926 0.299116,-1.04952 0.07977,-0.349158 0.191773,-0.689423 0.289229,-1.033667 0.100243,-0.344785 0.189349,-0.692541 0.285906,-1.0383 0.08722,-0.300152 0.174409,-0.60029 0.273635,-0.896735 0.06484,-0.22699 0.131085,-0.453379 0.201722,-0.678731 0.07102,-0.250902 0.134099,-0.503231 0.21161,-0.752281 0.06467,-0.226326 0.136598,-0.450407 0.204415,-0.675762 0.06792,-0.203441 0.134695,-0.406962 0.192689,-0.613515 0.06618,-0.223372 0.144565,-0.443419 0.231477,-0.659569 0.09767,-0.204719 0.175847,-0.417384 0.242561,-0.633898 0.0934,-0.228837 0.181001,-0.459664 0.253334,-0.696057 0.08368,-0.249987 0.166309,-0.500636 0.253638,-0.749454 0.08242,-0.257903 0.182631,-0.509817 0.272459,-0.765342 0.09715,-0.238575 0.187748,-0.479953 0.285486,-0.718345 0.08814,-0.21256 0.180103,-0.423185 0.275527,-0.632588 0.107061,-0.212746 0.188282,-0.43641 0.294286,-0.649615 0.100772,-0.228181 0.214282,-0.450256 0.31914,-0.67652 0.11194,-0.267997 0.246992,-0.525364 0.370641,-0.787954 0.123169,-0.264636 0.260935,-0.522065 0.38801,-0.784757 0.140986,-0.274055 0.272854,-0.552613 0.410442,-0.828364 0.145506,-0.296009 0.296975,-0.588748 0.455773,-0.877844 0.09766,-0.185141 0.202416,-0.366464 0.30678,-0.547898 0.120257,-0.22667 0.275125,-0.431841 0.418683,-0.643845 0.301793,-0.446993 0.581982,-0.907888 0.874171,-1.361125 0.252131,-0.376702 0.47825,-0.769796 0.727613,-1.148263 0.237822,-0.349713 0.470391,-0.702331 0.69489,-1.060801 0.225764,-0.36688 0.451946,-0.733498 0.679673,-1.099157 0.263025,-0.409412 0.513494,-0.826605 0.767532,-1.241562 0.166779,-0.246783 0.301466,-0.514168 0.467342,-0.761196 0.126865,-0.197315 0.240246,-0.40303 0.364911,-0.601939 0.08732,-0.142036 0.173383,-0.284597 0.265701,-0.423462 0,0 -0.318921,-0.186722 -0.318921,-0.186722 v 0 c -0.09183,0.139529 -0.177848,0.282505 -0.265503,0.42467 -0.124058,0.198847 -0.239144,0.403258 -0.366639,0.599815 -0.162893,0.249469 -0.292866,0.519813 -0.459718,0.767228 -0.252372,0.415811 -0.502536,0.833016 -0.766827,1.241475 -0.229421,0.364599 -0.456313,0.730808 -0.68083,1.098453 -0.224737,0.358 -0.457739,0.710056 -0.694702,1.060013 -0.248532,0.379141 -0.475083,0.772008 -0.724959,1.150295 -0.289612,0.454588 -0.568241,0.916266 -0.878975,1.357043 -0.146239,0.211449 -0.303781,0.416066 -0.425076,0.643471 -0.104351,0.181757 -0.208189,0.364008 -0.304053,0.550393 -0.157615,0.290253 -0.307769,0.58417 -0.454185,0.880211 -0.139018,0.275168 -0.272995,0.55282 -0.412821,0.827585 -0.127753,0.262523 -0.264382,0.520676 -0.387464,0.785513 -0.124219,0.262345 -0.259014,0.519807 -0.373394,0.786726 -0.104448,0.226106 -0.216577,0.448485 -0.317398,0.676287 -0.106491,0.213418 -0.189936,0.436466 -0.29687,0.649672 -0.0951,0.21013 -0.186225,0.421698 -0.274705,0.634669 -0.09752,0.239176 -0.188952,0.480827 -0.286321,0.720009 -0.08966,0.255628 -0.188706,0.507998 -0.271914,0.765656 -0.08742,0.2493 -0.171384,0.499948 -0.254983,0.750464 -0.07175,0.236464 -0.159503,0.467199 -0.254446,0.695296 -0.06664,0.215505 -0.142226,0.428026 -0.240422,0.631545 -0.08771,0.217198 -0.16623,0.438564 -0.234392,0.662633 -0.05743,0.206489 -0.12334,0.410051 -0.192428,0.612885 -0.06714,0.225593 -0.137955,0.450049 -0.201602,0.6767 -0.07917,0.24841 -0.142142,0.500626 -0.213318,0.751344 -0.07123,0.225111 -0.137281,0.451406 -0.200315,0.678853 -0.09805,0.297675 -0.184659,0.598783 -0.271873,0.899765 -0.09575,0.345949 -0.18572,0.693384 -0.28591,1.038134 -0.09696,0.344486 -0.210035,0.684562 -0.288337,1.034208 -0.09834,0.350182 -0.195514,0.700572 -0.299958,1.048953 -0.09016,0.316594 -0.185034,0.631612 -0.268345,0.950123 -0.07161,0.269494 -0.149637,0.53679 -0.204825,0.810461 -0.08062,0.285696 -0.158515,0.571665 -0.214038,0.863536 -0.06603,0.328659 -0.142013,0.655956 -0.18212,0.989171 -0.04733,0.330458 -0.08599,0.662134 -0.133437,0.9926 -0.04941,0.33439 -0.09892,0.670665 -0.103836,1.009155 -0.01522,0.374847 -0.04256,0.748855 -0.08141,1.122032 -0.02197,0.318785 -0.05603,0.636226 -0.08958,0.953927 z" />
    <path
       style="fill:#ffffff;fill-rule:nonzero"
       id="path36"
       d="m -53.81551,27.553235 c 0.172815,0.177636 0.325404,0.372758 0.493618,0.55461 0.139633,0.142665 0.273178,0.290846 0.416423,0.429934 0.109935,0.121537 0.228239,0.23487 0.342012,0.352658 0.112697,0.130063 0.236379,0.249529 0.35757,0.371446 0.129919,0.125845 0.253792,0.257607 0.381131,0.386062 0.117036,0.113815 0.219712,0.239864 0.32287,0.365923 0.130066,0.156277 0.262218,0.310766 0.393959,0.465668 0.128918,0.143793 0.255805,0.289476 0.372322,0.443598 0.103326,0.139589 0.204888,0.280342 0.30863,0.419575 0.107918,0.136347 0.188106,0.290424 0.285477,0.433939 0.08943,0.132429 0.186987,0.259026 0.279175,0.389484 0.103329,0.152283 0.223747,0.290835 0.328841,0.441838 0.124529,0.145335 0.243804,0.296448 0.37294,0.437994 0.148856,0.147904 0.294424,0.298882 0.437516,0.452385 0.165014,0.186088 0.31802,0.38247 0.468091,0.580685 0.128734,0.160534 0.26181,0.317333 0.393412,0.475499 0.124182,0.145363 0.221796,0.31038 0.330113,0.467305 0.103514,0.152656 0.226675,0.290441 0.332182,0.441476 0.108598,0.168503 0.222572,0.333587 0.341752,0.494772 0.124306,0.142135 0.223781,0.302251 0.332803,0.455754 0.120605,0.159092 0.243321,0.316519 0.353576,0.483067 0.0812,0.113297 0.15068,0.233148 0.233587,0.345223 0.100799,0.131261 0.186352,0.273179 0.281015,0.408777 0.129787,0.171521 0.252473,0.348546 0.368378,0.529714 0.09495,0.144877 0.197638,0.284117 0.292872,0.428779 0.09864,0.137207 0.212534,0.261692 0.3322,0.380605 0.11416,0.109825 0.231389,0.216522 0.338453,0.333401 0.0812,0.112593 0.184506,0.206326 0.264088,0.319859 0.105902,0.146939 0.209725,0.29348 0.300417,0.450628 0.09759,0.169723 0.190661,0.341888 0.283933,0.513992 0.09018,0.169026 0.198561,0.325681 0.306981,0.483143 0.09837,0.142399 0.192495,0.287704 0.294857,0.427342 0.111081,0.130763 0.198391,0.278584 0.290024,0.42297 0.136323,0.204886 0.262005,0.416269 0.385972,0.628816 0.108985,0.158596 0.205037,0.324825 0.297041,0.493596 0.09746,0.178819 0.193947,0.358196 0.288961,0.53832 0.0934,0.174071 0.188018,0.347052 0.292439,0.514798 0.08194,0.145128 0.158164,0.293085 0.239544,0.43852 0.07883,0.136545 0.149261,0.278234 0.208833,0.424247 0.07421,0.169266 0.14928,0.337721 0.214898,0.510611 0.09022,0.22273 0.18115,0.445202 0.273008,0.667276 0.07166,0.173832 0.15326,0.343276 0.230084,0.514886 0.0595,0.1452 0.09665,0.296737 0.155532,0.442308 0.06002,0.179304 0.101116,0.364003 0.146429,0.54736 0.03194,0.146082 0.05118,0.29314 0.09777,0.435591 0.03297,0.121598 0.0862,0.236111 0.121822,0.356727 0,0 0.337628,0.16057 0.337628,0.16057 v 0 c -0.03256,-0.122611 -0.08949,-0.23596 -0.121626,-0.358807 -0.04935,-0.141474 -0.07133,-0.287131 -0.10089,-0.433627 -0.04554,-0.184405 -0.08869,-0.369384 -0.142752,-0.551551 -0.05972,-0.146099 -0.10167,-0.295981 -0.155543,-0.444118 -0.08015,-0.170356 -0.156421,-0.343006 -0.233214,-0.514891 -0.09291,-0.220854 -0.180952,-0.443836 -0.272112,-0.665422 -0.0646,-0.173184 -0.136665,-0.342608 -0.213561,-0.510602 -0.05626,-0.148357 -0.127916,-0.290836 -0.206315,-0.428489 -0.08068,-0.146623 -0.161787,-0.292712 -0.239561,-0.440982 -0.107715,-0.16546 -0.199545,-0.339583 -0.294739,-0.512452 -0.09426,-0.180006 -0.191223,-0.358628 -0.286642,-0.538045 -0.09387,-0.169284 -0.186464,-0.339374 -0.300739,-0.496294 -0.1239,-0.211904 -0.246223,-0.424578 -0.38245,-0.628828 -0.09217,-0.144016 -0.175706,-0.294757 -0.287676,-0.424871 -0.104521,-0.13852 -0.198758,-0.284126 -0.297342,-0.426786 -0.106643,-0.157472 -0.218246,-0.310628 -0.30721,-0.479265 -0.09505,-0.171724 -0.187004,-0.345132 -0.284959,-0.515269 -0.08987,-0.1573 -0.188115,-0.307305 -0.296888,-0.451726 -0.0751,-0.119083 -0.182693,-0.209717 -0.262775,-0.325331 -0.105989,-0.118643 -0.222272,-0.226661 -0.337805,-0.335776 -0.121818,-0.115174 -0.232764,-0.240161 -0.33505,-0.372996 -0.0959,-0.145272 -0.196938,-0.286191 -0.295927,-0.429388 -0.11413,-0.181878 -0.235453,-0.359831 -0.365711,-0.530547 -0.09581,-0.134477 -0.179495,-0.277123 -0.279267,-0.408722 -0.0819,-0.113246 -0.155978,-0.229802 -0.236171,-0.344209 -0.108375,-0.167964 -0.230952,-0.325945 -0.352586,-0.484407 -0.110793,-0.152727 -0.20642,-0.315928 -0.33312,-0.456633 -0.120345,-0.159905 -0.234282,-0.324794 -0.342394,-0.493199 -0.101191,-0.154245 -0.227601,-0.289487 -0.331733,-0.441828 -0.110112,-0.156521 -0.206148,-0.323171 -0.328895,-0.470514 -0.133904,-0.156394 -0.262618,-0.317091 -0.395734,-0.474235 -0.149174,-0.199564 -0.304012,-0.39517 -0.466374,-0.584179 -0.142581,-0.153032 -0.285494,-0.305734 -0.435284,-0.451624 -0.133075,-0.137384 -0.24564,-0.293944 -0.376345,-0.433403 -0.103976,-0.151507 -0.221594,-0.291017 -0.327308,-0.441238 -0.08997,-0.132158 -0.190374,-0.25672 -0.27968,-0.389347 -0.0982,-0.143829 -0.179485,-0.297055 -0.28502,-0.435819 -0.106036,-0.137318 -0.203798,-0.28071 -0.30863,-0.419188 -0.114376,-0.156381 -0.242457,-0.302221 -0.371944,-0.446153 -0.132146,-0.154224 -0.263658,-0.308796 -0.393631,-0.464742 -0.103773,-0.12615 -0.203412,-0.255253 -0.321464,-0.368929 -0.125892,-0.129406 -0.252067,-0.258806 -0.380512,-0.385609 -0.118662,-0.124711 -0.248943,-0.238248 -0.358889,-0.371441 -0.111315,-0.120115 -0.233782,-0.229411 -0.340526,-0.353873 -0.144824,-0.1389 -0.280192,-0.286274 -0.420623,-0.429555 -0.16868,-0.179603 -0.321058,-0.372569 -0.487857,-0.553625 z" />
    <path
       style="fill:#ffffff;fill-rule:nonzero"
       id="path37"
       d="m -32.858964,50.044926 c -0.08469,0.111744 -0.171024,0.221649 -0.247907,0.339068 -0.09156,0.145521 -0.161067,0.30379 -0.230424,0.460758 -0.06826,0.159097 -0.133953,0.319207 -0.204702,0.477227 -0.05737,0.130304 -0.115441,0.260397 -0.179963,0.387342 -0.05949,0.11932 -0.124526,0.235181 -0.196581,0.347377 -0.06265,0.09643 -0.118449,0.196939 -0.178153,0.295177 -0.04998,0.09061 -0.110388,0.174384 -0.171854,0.25732 -0.04099,0.05346 -0.07162,0.112873 -0.105962,0.170467 -0.04447,0.05288 -0.08361,0.109792 -0.125665,0.164535 0,0 0.319634,0.190305 0.319634,0.190305 v 0 c 0.04326,-0.05569 0.08532,-0.112279 0.129127,-0.167546 0.0341,-0.05634 0.06337,-0.115314 0.102553,-0.168589 0.06088,-0.08459 0.121574,-0.169392 0.17264,-0.260481 0.05969,-0.09798 0.113172,-0.199504 0.176296,-0.295387 0.0718,-0.113731 0.137397,-0.230675 0.198895,-0.350241 0.06442,-0.127853 0.119539,-0.259977 0.177577,-0.3908 0.07001,-0.158373 0.137676,-0.317768 0.204828,-0.477374 0.06769,-0.155415 0.137596,-0.31125 0.227958,-0.45501 0.07708,-0.115955 0.161626,-0.225959 0.252174,-0.331738 z" />
    <path
       style="fill:#ffffff;fill-rule:nonzero"
       id="path38"
       d="m -25.487247,48.892385 c -0.144879,0.148835 -0.274787,0.3093 -0.396765,0.477143 -0.138544,0.198302 -0.254971,0.410427 -0.365802,0.625059 -0.105973,0.197476 -0.220885,0.389944 -0.330159,0.585585 -0.121584,0.220506 -0.256805,0.432921 -0.386843,0.648418 -0.120858,0.178683 -0.2364,0.360771 -0.353295,0.542052 -0.08493,0.136042 -0.1828,0.26224 -0.278858,0.39024 -0.09336,0.119839 -0.185283,0.240703 -0.279419,0.359991 -0.04554,0.0692 -0.09591,0.134967 -0.143099,0.203002 0,0 0.319651,0.1877 0.319651,0.1877 v 0 c 0.04538,-0.0681 0.09362,-0.134238 0.138701,-0.202558 0.09434,-0.119471 0.186272,-0.240616 0.279688,-0.360773 0.09727,-0.128303 0.193684,-0.256566 0.278466,-0.393802 0.115192,-0.18262 0.229514,-0.365694 0.349189,-0.545427 0.13079,-0.215501 0.265816,-0.428466 0.388472,-0.648803 0.110638,-0.195384 0.227189,-0.387493 0.331593,-0.586345 0.108972,-0.213506 0.224377,-0.42401 0.361484,-0.621048 0.1226,-0.167186 0.253547,-0.327254 0.406557,-0.467966 z" />
    <path
       style="fill:#ffffff;fill-rule:nonzero"
       id="path39"
       d="m -33.590787,54.905069 c -0.157108,0.08525 -0.318252,0.162636 -0.476119,0.246537 -0.181301,0.08823 -0.352757,0.193646 -0.526976,0.294623 -0.135507,0.07863 -0.26898,0.161754 -0.398632,0.249834 -0.116225,0.08861 -0.237737,0.169525 -0.355307,0.256252 -0.148193,0.09537 -0.248147,0.2384 -0.357472,0.372835 -0.140302,0.171389 -0.261333,0.357458 -0.391577,0.536404 -0.109862,0.163934 -0.213591,0.332306 -0.314757,0.50181 -0.09311,0.155633 -0.16729,0.321948 -0.22238,0.494572 -0.04534,0.126658 -0.06836,0.258707 -0.07971,0.39225 -0.01122,0.118821 -0.0076,0.235975 0.01421,0.353098 0.01521,0.08958 0.04243,0.176007 0.07534,0.260453 0.03864,0.08923 0.09013,0.172333 0.148345,0.249991 0.06637,0.08407 0.148168,0.153545 0.225596,0.226944 0.06881,0.07241 0.146543,0.134201 0.226253,0.193952 0.09826,0.06939 0.198397,0.136449 0.299667,0.20143 0.150939,0.09285 0.296081,0.20237 0.465462,0.257001 0,0 -0.293713,-0.229674 -0.293713,-0.229674 v 0 c -0.01081,-0.0045 -0.02181,-0.0086 -0.03242,-0.01357 -0.195248,-0.09137 0.408211,0.240764 0.206317,0.120219 -0.103082,-0.06211 -0.201726,-0.131827 -0.301202,-0.199236 -0.08108,-0.0566 -0.158925,-0.118057 -0.227849,-0.189268 -0.07659,-0.073 -0.157273,-0.141427 -0.227061,-0.221019 -0.0578,-0.07554 -0.112845,-0.15331 -0.151456,-0.240835 -0.03537,-0.08202 -0.06368,-0.166772 -0.08014,-0.254781 -0.02408,-0.114235 -0.03149,-0.227745 -0.01961,-0.344419 0.0097,-0.131348 0.02988,-0.261489 0.07314,-0.386488 0.05185,-0.170927 0.125435,-0.334332 0.216235,-0.488245 0.09971,-0.169142 0.204769,-0.33537 0.312836,-0.499224 0.127727,-0.179782 0.247765,-0.365855 0.390194,-0.534595 0.10851,-0.131885 0.210278,-0.269388 0.356582,-0.362699 0.116986,-0.0866 0.237692,-0.167816 0.354216,-0.255087 0.129279,-0.0867 0.260505,-0.17101 0.394985,-0.249361 0.172713,-0.101819 0.343858,-0.205964 0.523917,-0.294666 0.159059,-0.08272 0.32019,-0.161371 0.482318,-0.237869 z" />
    <path
       style="fill:#ffffff;fill-rule:nonzero"
       id="path40"
       d="m -40.518563,57.89153 c -0.02869,-0.115913 -0.04712,-0.234458 -0.06559,-0.352426 -0.01326,-0.09777 -0.0419,-0.192215 -0.09745,-0.27414 -0.171549,-0.170229 -0.390925,-0.272047 -0.626041,-0.302971 -0.131569,-0.01625 -0.263467,-0.01606 -0.39035,0.02403 -0.136114,0.04785 -0.265821,0.112491 -0.39133,0.183325 -0.108704,0.06309 -0.204399,0.146608 -0.302286,0.225063 -0.146806,0.122959 -0.269754,0.271829 -0.395529,0.415608 -0.134154,0.147261 -0.253145,0.306973 -0.35774,0.476282 -0.08978,0.143088 -0.152518,0.29989 -0.204448,0.459954 -0.02969,0.115361 -0.05799,0.231479 -0.07539,0.349423 -0.01525,0.09401 -0.01406,0.187469 0.0016,0.281069 0.0098,0.05878 0.02711,0.115841 0.04801,0.17151 0,0 0.338391,0.15564 0.338391,0.15564 v 0 c -0.02494,-0.05214 -0.04194,-0.107809 -0.05272,-0.164653 -0.01787,-0.08989 -0.02113,-0.179644 -0.0073,-0.270615 0.01565,-0.116556 0.04187,-0.231473 0.06912,-0.345766 0.04923,-0.158046 0.110751,-0.312009 0.198384,-0.453166 0.102557,-0.167938 0.219875,-0.326492 0.352173,-0.47238 0.125348,-0.14186 0.248869,-0.28801 0.396841,-0.40705 0.09768,-0.07615 0.192277,-0.158094 0.300008,-0.219756 0.123403,-0.06978 0.250827,-0.134179 0.386744,-0.175895 0.124997,-0.03162 0.253084,-0.03085 0.380435,-0.01168 0.0532,0.0092 0.07626,0.01141 0.127247,0.0271 0.01909,0.0059 0.07299,0.03143 0.05632,0.02043 -0.475517,-0.313822 -0.302099,-0.179152 -0.194663,-0.112908 0.06242,0.07367 0.09503,0.163807 0.108956,0.259037 0.01688,0.118558 0.0399,0.236186 0.0587,0.354457 z" />
    <path
       style="fill:#ffffff;fill-rule:nonzero"
       id="path41"
       d="m -46.289311,56.341009 c -0.02343,0.126702 -0.04127,0.254336 -0.06374,0.381219 -0.02604,0.12181 -0.06614,0.24 -0.121261,0.351614 -0.05771,0.0967 -0.133206,0.178756 -0.210078,0.260133 -0.09511,0.100545 -0.205798,0.181984 -0.321955,0.256357 -0.149215,0.09833 -0.299477,0.195332 -0.44393,0.300609 -0.07915,0.0625 -0.166134,0.115579 -0.242798,0.181279 -0.04102,0.03516 -0.0713,0.0684 -0.108745,0.107213 -0.08963,0.10001 -0.168325,0.210239 -0.218872,0.334991 -0.03547,0.129231 -0.05018,0.263414 -0.06099,0.396694 -0.0043,0.142973 -0.01938,0.285098 -0.03107,0.427559 -0.0062,0.0814 -0.0093,0.162983 -0.01121,0.244582 0,0 0.3287,0.16846 0.3287,0.16846 v 0 c 0.002,-0.08107 0.0039,-0.162167 0.0097,-0.243073 0.01063,-0.142654 0.02548,-0.284964 0.02993,-0.428017 0.01059,-0.129625 0.02542,-0.259786 0.0579,-0.38593 0.047,-0.12095 0.122105,-0.22808 0.209204,-0.323865 0.10675,-0.109021 0.223859,-0.194641 0.347178,-0.283865 0.143915,-0.104796 0.292986,-0.202322 0.442475,-0.298929 0.118945,-0.07616 0.233621,-0.157977 0.330377,-0.261787 0.07893,-0.08432 0.156674,-0.169568 0.215912,-0.269501 0.05619,-0.115055 0.0964,-0.236697 0.123797,-0.36182 0.02362,-0.125261 0.03996,-0.25189 0.06802,-0.376226 z" />
    <path
       style="fill:#ffffff;fill-rule:nonzero"
       id="path42"
       d="m -55.096244,52.884935 c 0.202344,0.0023 0.40304,-0.02362 0.602883,-0.05227 0.240426,-0.02482 0.474555,-0.08356 0.70956,-0.137015 0.224192,-0.05619 0.444944,-0.124041 0.666122,-0.190656 0.239403,-0.06554 0.472998,-0.149634 0.704699,-0.238115 0.200319,-0.07851 0.39764,-0.16533 0.593976,-0.253406 0.207283,-0.10453 0.40777,-0.221815 0.611213,-0.33351 0.239249,-0.137899 0.47878,-0.275267 0.712073,-0.423074 0.28921,-0.175192 0.571136,-0.361641 0.853284,-0.547846 0.327072,-0.20504 0.648654,-0.418354 0.966767,-0.636971 0.238851,-0.163324 0.463401,-0.346522 0.676424,-0.542066 0.217998,-0.18933 0.420839,-0.395118 0.612673,-0.610672 0.1942,-0.217884 0.369665,-0.449549 0.521586,-0.698614 0.128011,-0.215588 0.228095,-0.445368 0.322146,-0.677216 0.09565,-0.220153 0.152638,-0.453163 0.188322,-0.689732 0.02185,-0.183052 0.02949,-0.367752 0.02314,-0.551935 -0.0085,-0.14917 -0.04503,-0.292201 -0.104999,-0.428324 -0.06817,-0.13351 -0.158221,-0.252822 -0.261814,-0.360485 -0.01553,-0.01515 -0.03106,-0.0303 -0.04658,-0.04544 0,0 -0.340908,-0.140338 -0.340908,-0.140338 v 0 c 0.01589,0.01493 0.03178,0.02985 0.04767,0.04478 0.105226,0.103737 0.195785,0.218202 0.266946,0.348362 0.0108,0.02366 0.04484,0.09667 0.05388,0.12226 0.03333,0.09434 0.04666,0.196019 0.05966,0.294577 0.0077,0.182413 8.98e-4,0.365579 -0.01799,0.547177 -0.03203,0.234782 -0.08592,0.465427 -0.182025,0.683128 -0.09373,0.229941 -0.191472,0.45874 -0.317779,0.673169 -0.149026,0.248353 -0.323498,0.477906 -0.516347,0.694116 -0.19113,0.214997 -0.395427,0.418098 -0.613562,0.605836 -0.211545,0.193401 -0.431262,0.378344 -0.666499,0.542553 -0.316773,0.220133 -0.639489,0.43143 -0.966365,0.636266 -0.283536,0.185728 -0.567756,0.370394 -0.859435,0.543214 -0.23245,0.147755 -0.471363,0.284924 -0.710702,0.421162 -0.203823,0.110783 -0.405903,0.22505 -0.613614,0.32847 -0.195613,0.08696 -0.390832,0.175501 -0.590144,0.2536 -0.231257,0.08875 -0.465298,0.169907 -0.704373,0.235272 -0.22045,0.06774 -0.441483,0.133247 -0.665619,0.188004 -0.232919,0.05469 -0.465703,0.111199 -0.704167,0.136832 -0.203199,0.027 -0.407486,0.04956 -0.612854,0.03895 z" />
    <path
       style="fill:#ffffff;fill-rule:nonzero"
       id="path43"
       d="m -63.264502,55.758386 c -0.07911,0.08698 -0.154669,0.177266 -0.233099,0.264906 -0.110008,0.123052 -0.204042,0.258846 -0.294994,0.396258 -0.117202,0.186584 -0.220245,0.381656 -0.313014,0.581388 -0.09169,0.201517 -0.159118,0.412603 -0.227666,0.622745 -0.06598,0.217865 -0.128677,0.436684 -0.193036,0.655038 -0.06141,0.211804 -0.124276,0.423256 -0.187798,0.634467 -0.05789,0.185483 -0.105734,0.373878 -0.152102,0.562498 -0.0388,0.198005 -0.07095,0.397611 -0.09744,0.597669 -0.03265,0.204347 -0.04964,0.410389 -0.05925,0.616941 -0.0066,0.184964 -0.0078,0.370083 -0.0083,0.55515 -8.21e-4,0.180728 -0.0026,0.361084 0.01342,0.541208 0.02025,0.20953 0.05039,0.417933 0.09318,0.624029 0.03515,0.182276 0.09746,0.354843 0.179329,0.520745 0.08117,0.144793 0.164646,0.288077 0.255881,0.426767 0.09364,0.135339 0.201943,0.261343 0.315013,0.380918 0.131187,0.123093 0.267556,0.240456 0.399584,0.362673 0.12125,0.114677 0.240762,0.230862 0.377306,0.327341 0.157464,0.09831 0.319094,0.191621 0.482415,0.279054 0.02313,0.01238 0.04922,0.01821 0.07391,0.02708 0.09526,0.03422 0.06616,0.02405 0.163396,0.0535 0.122795,0.028 0.243647,0.06666 0.368802,0.08282 0.139381,0.01213 0.279482,0.01159 0.419271,0.01158 0.303493,0.0016 0.606525,-0.01665 0.909416,-0.03323 0.251575,-0.01739 0.127907,-0.0089 0.371006,-0.0256 0,0 -0.286657,-0.205138 -0.286657,-0.205138 v 0 c -0.241434,0.01813 -0.118275,0.0095 -0.369488,0.02586 -0.306566,0.01557 -0.613372,0.03091 -0.920439,0.0227 -0.139892,-0.0014 -0.280417,-7.64e-4 -0.419448,-0.0183 -0.121986,-0.02093 -0.241992,-0.05343 -0.36167,-0.0845 -0.02723,-0.0088 -0.05466,-0.01696 -0.08169,-0.02633 -0.02713,-0.0094 -0.0541,-0.01932 -0.08076,-0.02999 -0.02465,-0.0099 -0.09542,-0.04596 -0.07312,-0.03157 0.01052,0.0068 0.401608,0.234802 0.205573,0.120332 -0.01938,-0.01132 -0.03877,-0.02262 -0.05815,-0.03393 -0.140471,-0.09204 -0.260966,-0.207275 -0.381878,-0.323215 -0.13112,-0.122264 -0.265753,-0.240533 -0.399136,-0.360294 -0.114812,-0.116956 -0.221787,-0.243433 -0.318767,-0.375229 -0.09105,-0.137496 -0.173489,-0.279746 -0.256319,-0.422295 -0.0841,-0.16341 -0.151545,-0.332221 -0.186479,-0.513696 -0.0442,-0.204546 -0.07457,-0.411578 -0.09461,-0.619892 -0.01613,-0.178811 -0.01366,-0.357801 -0.0128,-0.537217 -1.73e-4,-0.184946 -0.0011,-0.369943 0.0055,-0.554809 0.0086,-0.205707 0.02437,-0.411051 0.05715,-0.614508 0.02579,-0.198702 0.05967,-0.396542 0.09722,-0.5933 0.04555,-0.188312 0.09274,-0.376394 0.149829,-0.561594 0.06302,-0.211568 0.124427,-0.423633 0.186401,-0.635473 0.06348,-0.218136 0.127793,-0.436063 0.193695,-0.653486 0.06748,-0.20906 0.134142,-0.418926 0.224348,-0.619603 0.09178,-0.198302 0.194984,-0.390841 0.313269,-0.574743 0.09122,-0.13514 0.184725,-0.269376 0.294456,-0.390364 0.07916,-0.08672 0.154433,-0.176984 0.237806,-0.259847 z" />
    <path
       style="fill:#ffffff;fill-rule:nonzero"
       id="path44"
       d="m -28.61167,54.199821 c -0.111393,0.127215 -0.213106,0.262625 -0.311522,0.400031 -0.143051,0.18967 -0.276271,0.386271 -0.405139,0.585754 -0.133596,0.204417 -0.265315,0.410021 -0.397884,0.615104 -0.142062,0.20067 -0.277091,0.40586 -0.407275,0.614385 -0.143447,0.238727 -0.280361,0.481346 -0.424622,0.719571 -0.12562,0.211877 -0.241235,0.429149 -0.348032,0.651043 -0.105327,0.199525 -0.199601,0.404316 -0.295386,0.608483 -0.07121,0.144828 -0.11846,0.298621 -0.168637,0.451373 -0.04116,0.112957 -0.06017,0.231927 -0.07696,0.350478 -0.01043,0.09527 -0.03284,0.188441 -0.04514,0.283478 -0.005,0.04946 -0.0029,0.02502 -0.0065,0.07333 0,0 0.331121,0.171505 0.331121,0.171505 v 0 c 0.0027,-0.04733 0.0011,-0.02338 0.0051,-0.07184 0.0106,-0.09543 0.03241,-0.188947 0.0416,-0.28453 0.01609,-0.116486 0.0365,-0.232966 0.07389,-0.344746 0.04922,-0.151864 0.09137,-0.30613 0.161075,-0.450585 0.09426,-0.204823 0.190367,-0.408486 0.29385,-0.608858 0.105564,-0.221245 0.221046,-0.437306 0.345021,-0.64882 0.142974,-0.238761 0.276708,-0.483088 0.425214,-0.718567 0.12997,-0.208384 0.265634,-0.412867 0.406303,-0.614199 0.133441,-0.204578 0.265286,-0.410186 0.399432,-0.614302 0.12846,-0.198947 0.259846,-0.396149 0.404501,-0.583822 0.09942,-0.134821 0.201116,-0.269198 0.31843,-0.389137 z" />
    <path
       style="fill:#ffffff;fill-rule:nonzero"
       id="path45"
       d="m -25.763832,56.91497 c -0.196539,0.01904 -0.364425,0.128744 -0.528821,0.228736 -0.258407,0.166317 -0.502467,0.353556 -0.734448,0.554789 -0.16109,0.146726 -0.283927,0.325485 -0.374172,0.522564 -0.05933,0.141455 -0.09011,0.29188 -0.09392,0.444809 0.0011,0.04845 0.01172,0.09555 0.02213,0.142588 0,0 0.335381,0.161102 0.335381,0.161102 v 0 c -0.0115,-0.04489 -0.0239,-0.08971 -0.02891,-0.135942 -0.0016,-0.148469 0.02779,-0.29534 0.08277,-0.43337 0.08751,-0.194262 0.204337,-0.366534 0.361461,-0.512219 0.228399,-0.201853 0.469933,-0.388968 0.728692,-0.550662 0.164416,-0.09509 0.336546,-0.200162 0.532596,-0.20243 z" />
    <path
       style="fill:#ffffff;fill-rule:nonzero"
       id="path46"
       d="m -15.54207,54.586083 c 0.01892,-0.12006 0.05401,-0.236594 0.08215,-0.35469 0.03846,-0.187178 0.08954,-0.371372 0.133722,-0.557194 0.03336,-0.154569 0.08825,-0.302912 0.140306,-0.45182 0.05399,-0.142683 0.12262,-0.28018 0.195526,-0.41411 0.106563,-0.181327 0.205999,-0.366605 0.319596,-0.543678 0.136834,-0.229742 0.296151,-0.444486 0.446131,-0.665489 0.141667,-0.188044 0.276748,-0.380548 0.402523,-0.579573 0.09802,-0.156635 0.223496,-0.292318 0.341405,-0.433716 0.06034,-0.0673 0.126837,-0.128244 0.191724,-0.19095 0,0 -0.316006,-0.193829 -0.316006,-0.193829 v 0 c -0.06371,0.06487 -0.128361,0.12875 -0.188288,0.197248 -0.11795,0.143486 -0.247981,0.277637 -0.34309,0.43838 -0.123129,0.200046 -0.257269,0.392498 -0.397789,0.580716 -0.150273,0.221168 -0.308363,0.437054 -0.448037,0.66532 -0.115279,0.177062 -0.217397,0.361804 -0.325001,0.543554 -0.07482,0.135137 -0.146467,0.273485 -0.20071,0.41825 -0.05195,0.150498 -0.106278,0.300631 -0.139196,0.456776 -0.04286,0.185845 -0.09386,0.36969 -0.135489,0.555805 -0.02986,0.118294 -0.06473,0.235115 -0.09044,0.354408 z" />
    <path
       style="fill:#ffffff;fill-rule:nonzero"
       id="path47"
       d="m -18.760503,53.678323 c -0.05793,0.135215 -0.119319,0.269036 -0.17991,0.403118 -0.07367,0.145254 -0.145463,0.292203 -0.233365,0.429506 -0.0645,0.110098 -0.149677,0.203582 -0.24002,0.292704 -0.07582,0.06348 -0.15147,0.127837 -0.242261,0.168442 -0.04482,0.01941 -0.0914,0.03388 -0.137094,0.05105 0,0 0.307866,0.207296 0.307866,0.207296 v 0 c 0.04656,-0.01725 0.09371,-0.03313 0.138928,-0.05378 0.09166,-0.04645 0.171249,-0.11145 0.24757,-0.179828 0.09158,-0.09161 0.176971,-0.188356 0.242577,-0.300783 0.08761,-0.139539 0.159041,-0.288486 0.234007,-0.435039 0.06084,-0.13402 0.122171,-0.267827 0.187704,-0.399594 z" />
    <path
       style="fill:#ffffff;fill-rule:nonzero"
       id="path48"
       d="m -20.421464,56.826176 c -0.124398,0.151492 -0.246689,0.304806 -0.364792,0.461252 -0.146044,0.178498 -0.265874,0.375213 -0.381117,0.574339 -0.08977,0.139648 -0.161858,0.288106 -0.229885,0.439124 -0.06233,0.131927 -0.11373,0.266894 -0.14502,0.409467 -0.02058,0.100386 -0.0218,0.203141 -0.02309,0.305183 9.53e-4,0.0773 -0.0036,0.154879 0.0027,0.231986 0.0036,0.06699 0.03283,0.117836 0.07767,0.165099 0.15129,0.137023 0.321614,0.214469 0.513216,0.242293 0.06035,0.0064 0.122698,0.01252 0.181921,-0.0058 0.02187,-0.0067 0.06733,-0.03069 0.0883,-0.04127 0.03458,-0.0188 0.06031,-0.04817 0.08797,-0.07532 0,0 -0.318152,-0.1952 -0.318152,-0.1952 v 0 c -0.02468,0.02461 -0.04812,0.05026 -0.07996,0.06598 -0.09243,0.04325 -0.157672,0.04543 -0.257605,0.02789 -0.03878,-0.0072 -0.07662,-0.01477 -0.113846,-0.02813 -0.01,-0.0036 -0.0386,-0.01741 -0.02952,-0.01193 0.258697,0.1561 0.40438,0.224052 0.274231,0.162616 -0.0483,-0.03574 -0.08454,-0.07839 -0.0898,-0.140734 -0.01166,-0.07542 -0.003,-0.152705 -0.0066,-0.228764 3.23e-4,-0.100055 0.0011,-0.200648 0.01816,-0.299543 0.02751,-0.141038 0.07691,-0.274115 0.138727,-0.403794 0.06715,-0.150086 0.139703,-0.29702 0.225235,-0.437692 0.112299,-0.199051 0.231639,-0.394073 0.376372,-0.571642 0.119094,-0.155732 0.240936,-0.310097 0.375314,-0.453042 z" />
    <path
       style="fill:#ffffff;fill-rule:nonzero"
       id="path49"
       d="m -18.922667,58.559493 c -0.105541,0.199748 -0.218087,0.395574 -0.324228,0.595085 -0.127802,0.249616 -0.235634,0.508089 -0.327091,0.772968 -0.06076,0.202931 -0.126993,0.404104 -0.179523,0.609393 -0.03936,0.163071 -0.08725,0.32376 -0.127302,0.486681 -0.02995,0.157661 -0.0757,0.311438 -0.108123,0.468503 -0.03414,0.149822 -0.05446,0.301859 -0.06703,0.45483 -0.0058,0.0883 -0.0192,0.176668 0.01336,0.260842 0.01533,0.02778 0.03536,0.05495 0.06353,0.07119 0.107451,0.06195 0.254041,0.207789 0.408002,0.20361 0.02311,-6.27e-4 0.04596,-0.005 0.06894,-0.0075 0.160902,-0.02741 0.316693,-0.07611 0.474168,-0.117853 0.214057,-0.05984 0.432316,-0.101542 0.648394,-0.153322 0.276233,-0.06176 0.542309,-0.159226 0.802398,-0.269462 0.255854,-0.101238 0.496222,-0.234766 0.736048,-0.368386 0.110519,-0.06741 0.224769,-0.130314 0.326776,-0.210676 0.04719,-0.03718 0.09175,-0.0776 0.138123,-0.115791 0.09175,-0.07648 0.04697,-0.03756 0.134398,-0.116693 0,0 -0.310731,-0.192549 -0.310731,-0.192549 v 0 c -0.08622,0.07804 -0.04187,0.03951 -0.133154,0.115469 -0.04582,0.03777 -0.09021,0.0773 -0.137067,0.113782 -0.100983,0.07862 -0.212627,0.142227 -0.321231,0.209346 -0.236576,0.135346 -0.475419,0.2674 -0.729543,0.367628 -0.260135,0.107602 -0.525911,0.202412 -0.801363,0.263016 -0.218112,0.05045 -0.438415,0.09075 -0.654315,0.150388 -0.156305,0.04086 -0.310986,0.09116 -0.472031,0.110191 -0.02201,-1.03e-4 -0.04417,0.0021 -0.06604,-3.08e-4 -0.01669,-0.0019 -0.06279,-0.02185 -0.04879,-0.01258 0.578365,0.383192 0.298074,0.189662 0.213283,0.115014 -0.0456,-0.07783 -0.02875,-0.158755 -0.02592,-0.245616 0.0097,-0.151994 0.02826,-0.30321 0.06268,-0.451794 0.03158,-0.156842 0.07969,-0.309647 0.107212,-0.46743 0.0393,-0.163147 0.08954,-0.323248 0.126013,-0.487078 0.05051,-0.20517 0.115646,-0.405975 0.1742,-0.608906 0.08861,-0.263908 0.192518,-0.522259 0.322428,-0.76889 0.106792,-0.198936 0.219026,-0.394515 0.336402,-0.58741 z" />
    <path
       style="fill:#ffffff;fill-rule:nonzero"
       id="path50"
       d="m -41.924945,64.483263 c -0.193803,0.04982 -0.375946,0.134252 -0.557619,0.216463 -0.240703,0.109993 -0.457625,0.26234 -0.664182,0.426107 -0.186799,0.156994 -0.372436,0.315463 -0.546378,0.48671 -0.167267,0.163518 -0.3439,0.31715 -0.518224,0.473074 -0.153967,0.142409 -0.308987,0.285029 -0.444224,0.445658 -0.134801,0.158404 -0.219939,0.326629 -0.298996,0.517189 -0.07703,0.172262 -0.111325,0.355068 -0.128565,0.541572 -0.0089,0.168355 0.01224,0.336292 0.03533,0.502718 0.01372,0.140977 0.04801,0.275901 0.111243,0.402469 0.04534,0.09027 0.09195,0.179596 0.146043,0.264942 0,0 0.338983,0.14863 0.338983,0.14863 v 0 c -0.05656,-0.08344 -0.104691,-0.171432 -0.148568,-0.262193 -0.06755,-0.121749 -0.105673,-0.253233 -0.118948,-0.39215 -0.02392,-0.16406 -0.04543,-0.329598 -0.0402,-0.495735 0.01577,-0.183114 0.04704,-0.363303 0.121661,-0.532862 0.02542,-0.06257 0.05194,-0.131464 0.08244,-0.19177 0.0574,-0.113484 0.136123,-0.213863 0.212714,-0.314706 0.132949,-0.159798 0.284954,-0.30293 0.437729,-0.443529 0.174515,-0.156668 0.352779,-0.309476 0.51999,-0.473999 0.172676,-0.170362 0.356038,-0.329261 0.542242,-0.484633 0.205009,-0.161428 0.419966,-0.311437 0.658979,-0.418839 0.182116,-0.08031 0.365988,-0.165242 0.563546,-0.19926 z" />
    <path
       style="fill:#ffffff;fill-rule:nonzero"
       id="path51"
       d="m -41.233964,66.169926 c -0.103046,0.127757 -0.159814,0.281699 -0.215392,0.433979 -0.06679,0.193994 -0.09516,0.397947 -0.10233,0.602224 -0.0045,0.156586 0.04605,0.295273 0.122943,0.428517 0.08179,0.132342 0.200831,0.233192 0.321384,0.328699 0.167963,0.119053 0.344309,0.234366 0.540636,0.299252 0,0 -0.293065,-0.228616 -0.293065,-0.228616 v 0 c -0.01355,-0.0052 -0.02724,-0.01 -0.04064,-0.01551 -0.115273,-0.04781 -0.222187,-0.126857 0.23365,0.143208 0.01557,0.0092 -0.03192,-0.0171 -0.04728,-0.02668 -0.01764,-0.011 -0.03442,-0.02334 -0.05163,-0.03501 -0.120411,-0.09267 -0.242029,-0.188152 -0.326886,-0.316328 -0.07878,-0.126548 -0.134701,-0.259026 -0.134479,-0.411118 0.0028,-0.200878 0.03033,-0.401603 0.09541,-0.592369 0.05486,-0.147613 0.110618,-0.299241 0.218138,-0.417846 z" />
    <path
       style="fill:#ffffff;fill-rule:nonzero"
       id="path52"
       d="m -35.29917,54.293571 c -0.09005,0.09697 -0.178566,0.195186 -0.267355,0.293277 -0.06542,0.07908 -0.130412,0.158426 -0.195353,0.23786 -0.05366,0.05792 -0.08798,0.124865 -0.105832,0.201139 -0.01897,0.07143 -0.02768,0.144662 -0.04622,0.21618 -0.0041,0.01483 -0.0082,0.02967 -0.01226,0.0445 0,0 0.326194,0.177545 0.326194,0.177545 v 0 c 0.0042,-0.0148 0.0084,-0.0296 0.01254,-0.04439 0.02121,-0.07162 0.02913,-0.145245 0.04878,-0.217252 0.01412,-0.07158 0.0457,-0.132937 0.09539,-0.187081 0.06366,-0.07959 0.129428,-0.157475 0.192564,-0.237506 0.08678,-0.09925 0.174562,-0.198053 0.269966,-0.289151 z" />
    <path
       style="fill:#ffffff;fill-rule:nonzero"
       id="path53"
       d="m -60.859112,10.608378 c -0.124173,0.0043 -0.238785,0.04607 -0.355355,0.08455 -0.07713,0.03026 -0.157583,0.05968 -0.227266,0.105656 -0.03508,0.02315 -0.06733,0.05034 -0.101569,0.07471 -0.08931,0.05858 -0.166062,0.133201 -0.23544,0.213947 -0.02918,0.04019 -0.05839,0.08 -0.09004,0.118276 0,0 0.318475,0.190689 0.318475,0.190689 v 0 c 0.03074,-0.03843 0.05965,-0.07807 0.0895,-0.117192 0.06832,-0.07778 0.141472,-0.15123 0.228906,-0.207692 0.09997,-0.07128 0.202864,-0.13574 0.32166,-0.171833 0.116724,-0.03842 0.233055,-0.07209 0.356943,-0.07549 z" />
    <path
       style="fill:#ffffff;fill-rule:nonzero"
       id="path54"
       d="m -62.213375,15.765361 c -0.162457,-0.113995 -0.372778,-0.267335 -0.586414,-0.292316 -0.02713,-0.0032 -0.05454,-0.003 -0.08182,-0.0045 -0.168185,-0.0079 -0.334492,0.02146 -0.50023,0.04533 -0.115413,0.01706 -0.219844,0.06304 -0.318431,0.123429 -0.01441,0.0085 -0.02881,0.01708 -0.04322,0.02562 0,0 0.31132,0.201451 0.31132,0.201451 v 0 c 0.01426,-0.0086 0.02853,-0.01729 0.04279,-0.02593 0.09551,-0.05618 0.197749,-0.09657 0.308005,-0.112984 0.16347,-0.02519 0.328305,-0.05165 0.49429,-0.03903 0.07142,0.0085 0.135648,0.0193 0.202699,0.04611 0.01901,0.0076 0.07343,0.03594 0.05608,0.02507 -0.07559,-0.04736 -0.385014,-0.227439 -0.230778,-0.135472 z" />
  </g>
</svg>
